<?xml version="1.0"?>
<svg xmlns="http://www.w3.org/2000/svg" xmlns:xlink="http://www.w3.org/1999/xlink" version="1.1" id="Capa_1" x="0px" y="0px" viewBox="0 0 486.337 486.337" style="enable-background:new 0 0 486.337 486.337;" xml:space="preserve" width="512px" height="512px" class=""><g transform="matrix(0.842775 0 0 0.842775 38.2322 38.2322)"><g>
	<path d="M435.668,244.598V0H263.663v51.509c-34.192,6.968-60,37.271-60,73.491v15h150v-15c0-36.219-25.808-66.522-60-73.491V30   h112.005v214.598h-405v148.337c0,25.127,16.943,46.356,40,52.904v40.498h30v-38.401h345v38.401h30v-40.498   c23.057-6.547,40-27.777,40-52.904V244.598H435.668z M321.092,110h-84.859c6.191-17.461,22.874-30,42.43-30   S314.901,92.539,321.092,110z M455.668,274.598v40h-425v-40H455.668z M430.668,417.936h-375c-13.785,0-25-11.215-25-25v-48.337h425   v48.337C455.668,406.721,444.454,417.936,430.668,417.936z" data-original="#000000" class="active-path" data-old_color="#000000" fill="#C0C0C0"/>
</g></g> </svg>
