<?xml version="1.0"?>
<svg xmlns="http://www.w3.org/2000/svg" height="512px" viewBox="0 -70 512 512" width="512px" class=""><g><path d="m494 228.078125v-9.121094c0-13.421875-3.4375-26.054687-9.472656-37.074219v-181.882812h-457.054688v181.882812c-6.035156 11.019532-9.472656 23.652344-9.472656 37.074219v9.121094h-18v143.757813h30v-37.195313h452v37.195313h30v-143.757813zm-39.472656-198.078125v121.503906c-6.292969-3.558594-13.132813-6.257812-20.355469-7.941406v-90.34375h-162.734375v88.296875h-30.875v-88.296875h-162.734375v90.34375c-7.226563 1.6875-14.0625 4.382812-20.355469 7.941406v-121.503906zm-50.355469 111.515625h-102.734375v-58.296875h102.734375zm-193.609375 0h-102.734375v-58.296875h102.734375zm-162.5625 77.441406c0-26.160156 21.28125-47.441406 47.441406-47.441406h321.117188c26.160156 0 47.441406 21.285156 47.441406 47.441406v9.121094h-416zm-18 39.121094h452v46.5625h-452zm0 0" data-original="#000000" class="active-path" data-old_color="#000000" fill="#C0C0C0"/></g> </svg>
