<?xml version="1.0"?>
<svg xmlns="http://www.w3.org/2000/svg" id="Capa_1" enable-background="new 0 0 508.002 508.002" height="512px" viewBox="0 0 508.002 508.002" width="512px" class=""><g><g><path d="m234 358v79.509c0 10.831-8.406 20.068-19.229 20.477-9.178.347-17.065-5.528-19.771-13.736-1.445-4.383-4.276-8.167-8.259-10.498-2.999-1.756-6.627-3.879-10.284-6.02-10.183-5.96-23.12 1.755-22.37 13.53 1.975 31.01 26.842 55.356 57.23 56.68 34.358 1.497 62.683-25.914 62.683-59.942v-80z" fill="#6d92ac" data-original="#6D92AC" class="active-path" style="fill:#AF8177" data-old_color="#6d92ac"/><path d="m497.85 215.31c-38.62-17.47-83.13-17.74-121.94-.79-80.36-16.59-163.46-16.67-243.82-.07-38.81-16.95-83.32-16.61-121.94.86 2.99-74.23 54.09-138.31 126.31-157.8 37.47-10.119 76.87-15.51 117.54-15.51s80.07 5.39 117.54 15.51c72.22 19.49 123.32 83.57 126.31 157.8z" fill="#8481e2" data-original="#8481E2" class="" style="fill:#AF8177" data-old_color="#8481e2"/><path d="m508 221.74c-1.968-104.159-76.965-158.526-133.86-173.89-35.779-9.661-72.782-14.942-110.14-15.742v-22.108c0-5.523-4.478-10-10-10s-10 4.477-10 10v22.108c-37.358.8-74.361 6.083-110.15 15.742-11.17 3.02-22.093 7.113-32.45 12.18-11.98 5.86-3.19 23.83 8.79 17.97 9.221-4.51 18.931-8.15 28.87-10.84 12.207-3.294 24.564-6.056 37.031-8.282-14.167 12.564-26.335 31.525-35.698 55.824-9.74 25.277-15.765 54.473-17.705 85.437-32.773-10.91-68.349-10.896-101.164.004 3.317-23.902 12.007-46.759 25.597-67.053 7.33-10.945-9.29-22.075-16.62-11.13-9.727 14.524-30.501 49.815-30.501 99.78 0 5.51 4.46 10.01 9.979 10.03l.021-.05v.05c5.434 0 9.882-4.374 9.997-9.784 32.676-13.062 69.174-13.371 101.958-.879.098 6.757 4.886 10.65 10.032 10.657h.014c5.214 0 9.497-3.992 9.958-9.089 33.861-6.526 67.932-10.072 102.041-10.639v135.964h-10c-5.522 0-10 4.477-10 10v79.509c0 5.581-4.31 10.284-9.607 10.484-4.422.162-8.505-2.659-9.896-6.875-2.256-6.84-6.768-12.521-12.703-15.996l-10.285-6.021c-7.977-4.669-17.834-4.547-25.725.318-7.78 4.796-12.255 13.409-11.677 22.478 2.298 36.088 31.538 66.104 69.935 66.104 44.829 0 70.377-38.098 69.958-70.001v-80c0-5.523-4.478-10-10-10h-10v-135.953c34.069.597 68.142 4.164 102.047 10.702.495 5.062 4.762 9.016 9.952 9.016h.014c5.315-.007 10.082-4.115 10.012-10.577 32.831-12.524 69.339-12.241 101.978.799.115 5.41 4.563 9.783 9.997 9.783h.02c5.52-.02 10.084-4.521 9.98-10.03zm-308.02-155.432c17.588-9.494 35.763-14.259 54.02-14.259s36.432 4.765 54.02 14.259c15.883 8.573 30.417 28.313 40.926 55.586 8.961 23.257 14.645 51.243 16.44 80.375-74.069-13.728-148.886-13.754-222.766-.072 1.8-29.106 7.482-57.065 16.435-80.304 10.508-27.272 25.043-47.013 40.925-55.585zm64.02 371.692c0 18.226-13.129 49.951-52.247 49.951-24.237 0-46.039-21.458-47.687-47.325-.163-3.851 3.869-6.238 7.339-4.264l10.284 6.02c1.73 1.012 3.084 2.788 3.813 4.999 4.165 12.629 16.366 21.099 29.645 20.597 16.179-.61 28.853-13.994 28.853-30.469v-69.509h20zm121.317-237.792c-1.936-30.989-7.962-60.21-17.709-85.506-9.363-24.296-21.53-43.257-35.696-55.821 12.463 2.225 24.815 4.986 37.018 8.279 62.832 16.958 108.739 70.02 117.538 132.983-32.782-10.875-68.352-10.865-101.151.065zm-326.871-106.368c0-5.523 4.477-10 10-10s10 4.477 10 10-4.477 10-10 10-10-4.477-10-10z" data-original="#000000" class="" style="fill:#684138" data-old_color="#000000"/></g></g> </svg>
